<mxfile host="app.diagrams.net" modified="2023-09-18T18:06:10.050Z" agent="Mozilla/5.0 (Windows NT 10.0; Win64; x64) AppleWebKit/537.36 (KHTML, like Gecko) Chrome/116.0.0.0 Safari/537.36" etag="gNsRj8gGyJ4tWyeJK5zL" version="21.7.5" type="google">
  <diagram name="PÃ¡gina-1" id="zrF7zzHH3TBsIPAb1SiI">
    <mxGraphModel grid="1" page="1" gridSize="10" guides="1" tooltips="1" connect="1" arrows="1" fold="1" pageScale="1" pageWidth="827" pageHeight="1169" math="0" shadow="0">
      <root>
        <mxCell id="0" />
        <mxCell id="1" parent="0" />
        <mxCell id="-0UNZeenMAnT6mzR7RGe-1" value="&lt;font style=&quot;font-size: 16px;&quot;&gt;&lt;br&gt;&lt;b id=&quot;docs-internal-guid-b2460dc6-7fff-2d20-ca99-11cba932f1dc&quot; style=&quot;font-weight:normal;&quot;&gt;&lt;span style=&quot;font-family: Arial, sans-serif; color: rgb(67, 67, 67); background-color: transparent; font-weight: 400; font-style: normal; font-variant: normal; text-decoration: none; vertical-align: baseline;&quot;&gt;&lt;font style=&quot;vertical-align: inherit; font-size: 16px;&quot;&gt;&lt;font style=&quot;vertical-align: inherit; font-size: 16px;&quot;&gt;&lt;font style=&quot;vertical-align: inherit; font-size: 16px;&quot;&gt;&lt;font style=&quot;vertical-align: inherit; font-size: 16px;&quot;&gt;&lt;font style=&quot;vertical-align: inherit; font-size: 16px;&quot;&gt;&lt;font style=&quot;vertical-align: inherit; font-size: 16px;&quot;&gt;&lt;font style=&quot;vertical-align: inherit; font-size: 16px;&quot;&gt;&lt;font style=&quot;vertical-align: inherit; font-size: 16px;&quot;&gt;Acessar site&lt;/font&gt;&lt;/font&gt;&lt;/font&gt;&lt;/font&gt;&lt;/font&gt;&lt;/font&gt;&lt;/font&gt;&lt;/font&gt;&lt;/span&gt;&lt;/b&gt;&lt;/font&gt;" style="ellipse;whiteSpace=wrap;html=1;" vertex="1" parent="1">
          <mxGeometry x="170" y="120" width="130" height="80" as="geometry" />
        </mxCell>
        <mxCell id="zK2nuxMTUpvmJAS-iy1P-1" value="&lt;font style=&quot;vertical-align: inherit;&quot;&gt;&lt;font style=&quot;vertical-align: inherit; font-size: 14px;&quot;&gt;Cliente&lt;/font&gt;&lt;/font&gt;" style="shape=umlActor;verticalLabelPosition=bottom;verticalAlign=top;html=1;outlineConnect=0;" vertex="1" parent="1">
          <mxGeometry x="60" y="191" width="30" height="60" as="geometry" />
        </mxCell>
        <mxCell id="zK2nuxMTUpvmJAS-iy1P-2" value="&lt;font style=&quot;font-size: 16px;&quot;&gt;&lt;br&gt;&lt;b id=&quot;docs-internal-guid-e0400f25-7fff-d2d0-e94c-e5adcc95c79b&quot; style=&quot;font-weight:normal;&quot;&gt;&lt;h3 style=&quot;line-height:1.38;margin-top:16pt;margin-bottom:4pt;&quot; dir=&quot;ltr&quot;&gt;&lt;span style=&quot;font-family: Arial, sans-serif; color: rgb(67, 67, 67); background-color: transparent; font-weight: 400; font-style: normal; font-variant: normal; text-decoration: none; vertical-align: baseline; font-size: 16px;&quot;&gt;&lt;font style=&quot;vertical-align: inherit; font-size: 16px;&quot;&gt;&lt;font style=&quot;vertical-align: inherit; font-size: 16px;&quot;&gt;&lt;font style=&quot;vertical-align: inherit; font-size: 16px;&quot;&gt;&lt;font style=&quot;vertical-align: inherit; font-size: 16px;&quot;&gt;Pagamento&lt;/font&gt;&lt;/font&gt;&lt;/font&gt;&lt;/font&gt;&lt;/span&gt;&lt;/h3&gt;&lt;/b&gt;&lt;br&gt;&lt;/font&gt;" style="ellipse;whiteSpace=wrap;html=1;" vertex="1" parent="1">
          <mxGeometry x="180" y="250" width="130" height="80" as="geometry" />
        </mxCell>
        <mxCell id="zK2nuxMTUpvmJAS-iy1P-3" value="&lt;font style=&quot;font-size: 16px;&quot;&gt;&lt;br&gt;&lt;b id=&quot;docs-internal-guid-418f8f9e-7fff-9497-7f84-b5f2a7a49de3&quot; style=&quot;font-weight:normal;&quot;&gt;&lt;h3 style=&quot;line-height:1.38;margin-top:16pt;margin-bottom:4pt;&quot; dir=&quot;ltr&quot;&gt;&lt;span style=&quot;font-family: Arial, sans-serif; color: rgb(67, 67, 67); background-color: transparent; font-weight: 400; font-style: normal; font-variant: normal; text-decoration: none; vertical-align: baseline; font-size: 16px;&quot;&gt;&lt;font style=&quot;vertical-align: inherit; font-size: 16px;&quot;&gt;&lt;font style=&quot;vertical-align: inherit; font-size: 16px;&quot;&gt;&lt;font style=&quot;vertical-align: inherit; font-size: 16px;&quot;&gt;&lt;font style=&quot;vertical-align: inherit; font-size: 16px;&quot;&gt;&lt;font style=&quot;vertical-align: inherit;&quot;&gt;&lt;font style=&quot;vertical-align: inherit;&quot;&gt;Compras&lt;/font&gt;&lt;/font&gt;&lt;/font&gt;&lt;/font&gt;&lt;/font&gt;&lt;/font&gt;&lt;/span&gt;&lt;/h3&gt;&lt;/b&gt;&lt;br&gt;&lt;/font&gt;" style="ellipse;whiteSpace=wrap;html=1;" vertex="1" parent="1">
          <mxGeometry x="190" y="380" width="130" height="80" as="geometry" />
        </mxCell>
        <mxCell id="zK2nuxMTUpvmJAS-iy1P-5" value="&lt;font style=&quot;vertical-align: inherit; font-size: 16px;&quot;&gt;&lt;font style=&quot;vertical-align: inherit; font-size: 16px;&quot;&gt;&lt;font style=&quot;vertical-align: inherit; font-size: 16px;&quot;&gt;&lt;font style=&quot;vertical-align: inherit; font-size: 16px;&quot;&gt;&lt;font style=&quot;vertical-align: inherit; font-size: 16px;&quot;&gt;&lt;font style=&quot;vertical-align: inherit; font-size: 16px;&quot;&gt;Acessar site&lt;/font&gt;&lt;/font&gt;&lt;/font&gt;&lt;/font&gt;&lt;/font&gt;&lt;/font&gt;&lt;h3 style=&quot;line-height: 1.38; margin-top: 16pt; margin-bottom: 4pt; font-size: 16px;&quot; dir=&quot;ltr&quot;&gt;&lt;/h3&gt;&lt;font style=&quot;font-size: 16px;&quot;&gt;&lt;span id=&quot;docs-internal-guid-127ac18d-7fff-247a-920c-b23da0b32c35&quot;&gt;&lt;/span&gt;&lt;/font&gt;&lt;h3 style=&quot;line-height: 1.38; margin-top: 16pt; margin-bottom: 4pt; font-size: 16px;&quot; dir=&quot;ltr&quot;&gt;&lt;/h3&gt;&lt;font style=&quot;font-size: 16px;&quot;&gt;&lt;span id=&quot;docs-internal-guid-127ac18d-7fff-247a-920c-b23da0b32c35&quot;&gt;&lt;/span&gt;&lt;/font&gt;" style="ellipse;whiteSpace=wrap;html=1;" vertex="1" parent="1">
          <mxGeometry x="510" y="140" width="130" height="80" as="geometry" />
        </mxCell>
        <mxCell id="zK2nuxMTUpvmJAS-iy1P-7" value="&lt;font style=&quot;vertical-align: inherit;&quot;&gt;&lt;font style=&quot;vertical-align: inherit;&quot;&gt;&lt;font style=&quot;vertical-align: inherit; font-size: 14px;&quot;&gt;&lt;font style=&quot;vertical-align: inherit; font-size: 14px;&quot;&gt;&lt;font style=&quot;vertical-align: inherit; font-size: 14px;&quot;&gt;&lt;font style=&quot;vertical-align: inherit; font-size: 14px;&quot;&gt;Instrutor&lt;/font&gt;&lt;/font&gt;&lt;/font&gt;&lt;/font&gt;&lt;/font&gt;&lt;/font&gt;" style="shape=umlActor;verticalLabelPosition=bottom;verticalAlign=top;html=1;outlineConnect=0;" vertex="1" parent="1">
          <mxGeometry x="730" y="200" width="30" height="60" as="geometry" />
        </mxCell>
        <mxCell id="zK2nuxMTUpvmJAS-iy1P-8" value="&lt;font style=&quot;vertical-align: inherit;&quot;&gt;&lt;font style=&quot;vertical-align: inherit;&quot;&gt;Gerente&lt;/font&gt;&lt;/font&gt;" style="shape=umlActor;verticalLabelPosition=bottom;verticalAlign=top;html=1;outlineConnect=0;" vertex="1" parent="1">
          <mxGeometry x="730" y="660" width="30" height="60" as="geometry" />
        </mxCell>
        <mxCell id="zK2nuxMTUpvmJAS-iy1P-10" value="&lt;font style=&quot;vertical-align: inherit; font-size: 16px;&quot;&gt;&lt;font style=&quot;vertical-align: inherit; font-size: 16px;&quot;&gt;&lt;font style=&quot;vertical-align: inherit; font-size: 16px;&quot;&gt;&lt;font style=&quot;vertical-align: inherit; font-size: 16px;&quot;&gt;&lt;font style=&quot;vertical-align: inherit;&quot;&gt;&lt;font style=&quot;vertical-align: inherit;&quot;&gt;Cadastro&lt;/font&gt;&lt;/font&gt;&lt;/font&gt;&lt;/font&gt;&lt;/font&gt;&lt;/font&gt;&lt;span id=&quot;docs-internal-guid-5d7357b2-7fff-961e-8832-ff0fc660df3e&quot;&gt;&lt;/span&gt;&lt;span id=&quot;docs-internal-guid-5d7357b2-7fff-961e-8832-ff0fc660df3e&quot;&gt;&lt;/span&gt;" style="ellipse;whiteSpace=wrap;html=1;" vertex="1" parent="1">
          <mxGeometry x="520" y="600" width="130" height="80" as="geometry" />
        </mxCell>
        <mxCell id="zK2nuxMTUpvmJAS-iy1P-11" value="&lt;font style=&quot;vertical-align: inherit; font-size: 16px;&quot;&gt;&lt;font style=&quot;vertical-align: inherit; font-size: 16px;&quot;&gt;&lt;font style=&quot;vertical-align: inherit; font-size: 16px;&quot;&gt;&lt;font style=&quot;vertical-align: inherit; font-size: 16px;&quot;&gt;Gerenciamento da loja&lt;/font&gt;&lt;/font&gt;&lt;/font&gt;&lt;/font&gt;&lt;h3 style=&quot;line-height: 1.38; margin-top: 16pt; margin-bottom: 4pt; font-size: 16px;&quot; dir=&quot;ltr&quot;&gt;&lt;/h3&gt;&lt;font style=&quot;font-size: 16px;&quot;&gt;&lt;span id=&quot;docs-internal-guid-1eec2baa-7fff-7557-6750-d7a7fb25ae93&quot;&gt;&lt;/span&gt;&lt;/font&gt;" style="ellipse;whiteSpace=wrap;html=1;" vertex="1" parent="1">
          <mxGeometry x="520" y="740" width="130" height="80" as="geometry" />
        </mxCell>
        <mxCell id="AWkzsM8CPml9f_vOnR8z-6" value="&lt;span style=&quot;font-size: 16px;&quot;&gt;&lt;font style=&quot;vertical-align: inherit;&quot;&gt;&lt;font style=&quot;vertical-align: inherit;&quot;&gt;Cadastra Treino&lt;/font&gt;&lt;/font&gt;&lt;/span&gt;" style="ellipse;whiteSpace=wrap;html=1;" vertex="1" parent="1">
          <mxGeometry x="510" y="280" width="130" height="80" as="geometry" />
        </mxCell>
      </root>
    </mxGraphModel>
  </diagram>
</mxfile>
